<?xml version="1.0" encoding="UTF-8"?>
<!DOCTYPE svg PUBLIC "-//W3C//DTD SVG 1.1//EN" "http://www.w3.org/Graphics/SVG/1.1/DTD/svg11.dtd">
<!-- Creator: CorelDRAW 2017 -->
<svg xmlns="http://www.w3.org/2000/svg" xml:space="preserve" width="175mm" height="35mm" version="1.1" style="shape-rendering:geometricPrecision; text-rendering:geometricPrecision; image-rendering:optimizeQuality; fill-rule:evenodd; clip-rule:evenodd"
viewBox="0 0 17500 3500"
 xmlns:xlink="http://www.w3.org/1999/xlink">
 <defs>
  <style type="text/css">
   <![CDATA[
    .fil0 {fill:#333333}
    .fil1 {fill:#333333;fill-rule:nonzero}
   ]]>
  </style>
 </defs>
 <g id="Layer_x0020_1">
  <metadata id="CorelCorpID_0Corel-Layer"/>
  <g id="_724170272">
   <path class="fil0" d="M163.01 233.07l732.52 0c-346.48,213.54 -590.81,479.35 -732.52,796.73l0 -796.73zm1970.81 0l1063.03 0 0 1745.58 -474.01 -939.25 -1048.48 529.15 168.26 333.39 636.1 -321.03 467.15 925.66c-61.65,68.71 -129.53,130.51 -201.85,185.33 -72.69,54.13 -151.62,103.14 -235.7,145.57 -1791.6,904.16 -3013.41,-2006.29 -803.58,-2550.24 141.26,-34.61 284.76,-51.97 429.81,-51.79l-0.73 -2.37zm1063.03 2607.99l0 425.85 -710.88 0c51.47,-22.21 103.3,-46.47 155.53,-72.83 169.64,-85.6 325.32,-180.68 467.03,-285.24 30.04,-22.15 59.48,-44.75 88.32,-67.78zm-2231.5 425.85l-802.34 0 0 -958.24c23.32,57.54 49.65,115.39 79,173.55 183.64,363.91 424.94,625.52 723.34,784.69z"/>
   <path class="fil1" d="M5185.06 828.63l-10.37 229.51c-61.77,-38.78 -124.45,-67.19 -187.12,-85.67 -63.13,-18.49 -128.06,-27.96 -195.25,-27.96 -190.28,0 -339.53,66.28 -446.85,199.3 -107.77,133.02 -161.42,319.24 -161.42,557.78 0,252.05 50.95,445.94 153.31,581.67 102.35,135.72 248,203.36 436.47,203.36 47.8,0 91.09,-4.06 130.32,-12.63 39.23,-8.12 77.1,-21.19 113.18,-38.78l0 -608.72 -311.13 0 0 -194.8 535.68 0 0 947.81c-70.34,35.17 -144.29,61.33 -221.4,78.91 -77.1,17.14 -158.27,25.7 -243.49,25.7 -268.74,0 -476.16,-83.41 -622.7,-249.8 -146.1,-166.38 -219.14,-404.46 -219.14,-713.34 0,-299.4 76.2,-536.13 228.61,-710.18 152.4,-174.05 359.37,-261.07 620.9,-261.07 74.85,0 146.09,6.76 214.18,19.84 67.63,13.07 129.86,32.91 186.22,59.07z"/>
   <path id="1" class="fil1" d="M7090.99 2029.4l-758.88 0c4.51,154.21 38.77,271.44 103.71,351.25 64.48,79.81 157.36,119.49 277.76,119.49 50.95,0 101.45,-7.21 151.95,-21.64 50.05,-14.88 101.91,-36.97 155.56,-67.19l5.42 189.39c-49.6,27.5 -102.81,47.79 -160.53,60.87 -57.71,13.08 -120.39,19.84 -188.03,19.84 -192.08,0 -336.37,-59.07 -433.32,-177.66 -96.94,-118.59 -145.19,-295.34 -145.19,-530.72 0,-219.14 46.89,-393.64 140.68,-523.05 93.79,-129.41 219.59,-194.34 378.31,-194.34 145.2,0 261.08,57.71 347.2,173.15 86.13,114.98 129.41,270.09 129.41,464.43 0,41.48 0,71.24 -0.45,88.83 -0.45,17.59 -1.8,33.37 -3.6,47.35zm-215.09 -159.63l0 -10.37c0,-137.52 -22.09,-242.13 -65.83,-314.28 -44.19,-72.15 -107.77,-108.22 -191.64,-108.22 -87.02,0 -154.66,36.07 -202.45,107.77 -48.25,71.69 -77.11,179.91 -86.58,325.1l546.5 0z"/>
   <polygon id="2" class="fil1" points="7979.22,638.79 8201.06,638.79 8201.06,1828.29 8672.26,1282.69 8923.42,1282.69 8394.05,1890.52 8969.41,2657.06 8709.24,2657.06 8201.06,1969.88 8201.06,2657.06 7979.22,2657.06 "/>
   <path id="3" class="fil1" d="M10299.97 1258.34l-1.35 224.55c-10.37,-0.9 -20.29,-1.8 -28.86,-2.25 -9.01,-0.45 -17.58,-0.45 -26.6,-0.45 -98.3,0 -174.05,33.82 -226.81,101 -52.75,67.64 -78.91,164.58 -78.91,291.29l0 784.58 -221.84 0 0 -1030.33c0,-50.95 -0.9,-104.61 -3.16,-160.97 -2.25,-55.91 -5.86,-116.79 -9.92,-183.07l206.07 0c4.05,62.68 7.21,110.02 8.56,142.49 1.36,32.01 1.81,62.22 1.81,90.63 35.17,-85.22 82.51,-149.7 141.58,-192.54 59.52,-43.28 130.77,-64.93 214.18,-64.93l25.25 0z"/>
   <path id="4" class="fil1" d="M11084.5 1282.69l221.84 0 0 1374.37 -221.84 0 0 -1374.37zm-13.53 -557.32l246.19 0 0 265.13 -246.19 0 0 -265.13z"/>
   <polygon id="5" class="fil1" points="12178.78,1282.69 13009.81,1282.69 13009.81,1498.23 12395.22,2473.09 13019.28,2473.09 13019.28,2657.06 12158.94,2657.06 12158.94,2437.92 12772.63,1466.66 12178.78,1466.66 "/>
   <polygon id="6" class="fil1" points="13793.87,1282.69 14624.9,1282.69 14624.9,1498.23 14010.31,2473.09 14634.37,2473.09 14634.37,2657.06 13774.03,2657.06 13774.03,2437.92 14387.72,1466.66 13793.87,1466.66 "/>
   <polygon id="7" class="fil1" points="15408.96,1282.69 16239.99,1282.69 16239.99,1498.23 15625.4,2473.09 16249.46,2473.09 16249.46,2657.06 15389.12,2657.06 15389.12,2437.92 16002.81,1466.66 15408.96,1466.66 "/>
   <polygon id="8" class="fil1" points="17115.14,638.79 17336.98,638.79 17336.98,2657.06 17115.14,2657.06 "/>
  </g>
 </g>
</svg>
