<?xml version="1.0" encoding="UTF-8"?>
<!DOCTYPE svg PUBLIC "-//W3C//DTD SVG 1.1//EN" "http://www.w3.org/Graphics/SVG/1.1/DTD/svg11.dtd">
<!-- Creator: CorelDRAW 2017 -->
<svg xmlns="http://www.w3.org/2000/svg" xml:space="preserve" width="80mm" height="20mm" version="1.1" style="shape-rendering:geometricPrecision; text-rendering:geometricPrecision; image-rendering:optimizeQuality; fill-rule:evenodd; clip-rule:evenodd"
viewBox="0 0 8000 2000"
 xmlns:xlink="http://www.w3.org/1999/xlink">
 <defs>
  <style type="text/css">
   <![CDATA[
    .fil0 {fill:white}
    .fil1 {fill:white;fill-rule:nonzero}
   ]]>
  </style>
 </defs>
 <g id="Layer_x0020_1">
  <metadata id="CorelCorpID_0Corel-Layer"/>
  <g id="_850987344">
   <g id="_724170272">
    <path class="fil0" d="M428.52 369.08l304.67 0c-144.11,88.82 -245.73,199.37 -304.67,331.37l0 -331.37zm819.69 0l442.14 0 0 726.02 -197.15 -390.65 -436.08 220.08 69.98 138.66 264.56 -133.52 194.3 385c-25.64,28.58 -53.87,54.28 -83.95,77.08 -30.24,22.51 -63.06,42.9 -98.03,60.55 -745.16,376.05 -1253.33,-834.46 -334.23,-1060.69 58.76,-14.4 118.44,-21.62 178.77,-21.54l-0.31 -0.99zm442.14 1084.71l0 177.12 -295.67 0c21.41,-9.24 42.96,-19.33 64.69,-30.29 70.55,-35.61 135.3,-75.15 194.24,-118.64 12.5,-9.21 24.74,-18.61 36.74,-28.19zm-928.12 177.12l-333.71 0 0 -398.55c9.7,23.93 20.65,47.99 32.86,72.18 76.38,151.36 176.74,260.17 300.85,326.37z"/>
    <path class="fil1" d="M2517.28 616.78l-4.31 95.46c-25.69,-16.13 -51.76,-27.94 -77.83,-35.63 -26.26,-7.69 -53.26,-11.63 -81.21,-11.63 -79.14,0 -141.21,27.57 -185.85,82.89 -44.82,55.33 -67.14,132.78 -67.14,231.99 0,104.84 21.19,185.48 63.77,241.93 42.57,56.45 103.14,84.58 181.53,84.58 19.88,0 37.89,-1.69 54.2,-5.25 16.32,-3.38 32.07,-8.82 47.08,-16.13l0 -253.18 -129.41 0 0 -81.02 222.8 0 0 394.21c-29.25,14.63 -60.01,25.51 -92.08,32.82 -32.07,7.13 -65.83,10.69 -101.27,10.69 -111.78,0 -198.05,-34.69 -259,-103.9 -60.76,-69.2 -91.14,-168.22 -91.14,-296.69 0,-124.52 31.69,-222.98 95.08,-295.37 63.39,-72.39 149.47,-108.59 258.25,-108.59 31.13,0 60.76,2.82 89.08,8.26 28.13,5.43 54.01,13.68 77.45,24.56z"/>
    <path id="_1" class="fil1" d="M3309.99 1116.21l-315.63 0c1.87,64.13 16.12,112.89 43.13,146.09 26.82,33.19 65.45,49.69 115.53,49.69 21.19,0 42.19,-2.99 63.2,-9 20.81,-6.18 42.38,-15.37 64.7,-27.94l2.25 78.77c-20.63,11.44 -42.76,19.88 -66.77,25.32 -24,5.44 -50.07,8.25 -78.2,8.25 -79.89,0 -139.9,-24.57 -180.23,-73.89 -40.32,-49.33 -60.38,-122.84 -60.38,-220.74 0,-91.14 19.5,-163.72 58.51,-217.55 39.01,-53.82 91.33,-80.83 157.34,-80.83 60.39,0 108.59,24.01 144.41,72.02 35.82,47.82 53.82,112.34 53.82,193.17 0,17.25 0,29.63 -0.18,36.94 -0.19,7.32 -0.75,13.88 -1.5,19.7zm-89.46 -66.4l0 -4.31c0,-57.2 -9.19,-100.71 -27.38,-130.72 -18.38,-30 -44.82,-45.01 -79.71,-45.01 -36.19,0 -64.32,15.01 -84.2,44.83 -20.07,29.81 -32.07,74.83 -36.01,135.21l227.3 0z"/>
    <polygon id="_2" class="fil1" points="3679.42,537.83 3771.69,537.83 3771.69,1032.56 3967.67,805.64 4072.13,805.64 3851.96,1058.44 4091.26,1377.26 3983.05,1377.26 3771.69,1091.45 3771.69,1377.26 3679.42,1377.26 "/>
    <path id="_3" class="fil1" d="M4644.66 795.51l-0.56 93.39c-4.31,-0.37 -8.44,-0.75 -12,-0.93 -3.75,-0.19 -7.32,-0.19 -11.07,-0.19 -40.88,0 -72.39,14.07 -94.33,42.01 -21.94,28.13 -32.82,68.45 -32.82,121.15l0 326.32 -92.27 0 0 -428.53c0,-21.19 -0.37,-43.51 -1.31,-66.95 -0.94,-23.26 -2.44,-48.58 -4.13,-76.14l85.71 0c1.68,26.07 3,45.75 3.56,59.26 0.56,13.31 0.75,25.88 0.75,37.69 14.63,-35.44 34.32,-62.26 58.89,-80.08 24.75,-18 54.39,-27 89.08,-27l10.5 0z"/>
    <path id="_4" class="fil1" d="M4970.96 805.64l92.27 0 0 571.62 -92.27 0 0 -571.62zm-5.63 -231.8l102.4 0 0 110.27 -102.4 0 0 -110.27z"/>
    <polygon id="_5" class="fil1" points="5426.09,805.64 5771.73,805.64 5771.73,895.28 5516.11,1300.74 5775.67,1300.74 5775.67,1377.26 5417.84,1377.26 5417.84,1286.12 5673.08,882.15 5426.09,882.15 "/>
    <polygon id="_6" class="fil1" points="6097.84,805.64 6443.48,805.64 6443.48,895.28 6187.86,1300.74 6447.41,1300.74 6447.41,1377.26 6089.58,1377.26 6089.58,1286.12 6344.83,882.15 6097.84,882.15 "/>
    <polygon id="_7" class="fil1" points="6769.58,805.64 7115.22,805.64 7115.22,895.28 6859.6,1300.74 7119.16,1300.74 7119.16,1377.26 6761.33,1377.26 6761.33,1286.12 7016.57,882.15 6769.58,882.15 "/>
    <polygon id="_8" class="fil1" points="7479.21,537.83 7571.48,537.83 7571.48,1377.26 7479.21,1377.26 "/>
   </g>
  </g>
 </g>
</svg>
