<?xml version="1.0" encoding="UTF-8"?>
<!DOCTYPE svg PUBLIC "-//W3C//DTD SVG 1.1//EN" "http://www.w3.org/Graphics/SVG/1.1/DTD/svg11.dtd">
<!-- Creator: CorelDRAW 2017 -->
<svg xmlns="http://www.w3.org/2000/svg" xml:space="preserve" width="125mm" height="62mm" version="1.1" style="shape-rendering:geometricPrecision; text-rendering:geometricPrecision; image-rendering:optimizeQuality; fill-rule:evenodd; clip-rule:evenodd"
viewBox="0 0 12500 6200"
 xmlns:xlink="http://www.w3.org/1999/xlink">
 <defs>
  <style type="text/css">
   <![CDATA[
    .fil0 {fill:black}
    .fil2 {fill:black;fill-rule:nonzero}
    .fil1 {fill:white;fill-rule:nonzero}
   ]]>
  </style>
 </defs>
 <g id="Layer_x0020_1">
  <metadata id="CorelCorpID_0Corel-Layer"/>
  <g id="_909351824">
   <path class="fil0" d="M8650.29 60.18c363.72,245.41 692.56,467.39 991.64,667.92 88.69,59.28 174.64,117.21 258.23,173.29l1025.97 689.69 0.06 0 0.06 0.13 -0.06 0 0 1706.97c-150.52,-45.88 -310.86,-94.96 -481.66,-147.14 -241.25,-73.77 -507.69,-155.36 -802.6,-245.12 -299.11,-91.09 -627.99,-191.79 -991.67,-303.34l-0.42 0.93 0 -1.9c-355.42,76.23 -686.17,147.49 -994.55,213.74 -287.84,61.86 -557.57,119.95 -811.02,174.51l0 -345.73c523.18,-135.31 1119.88,-289.13 1805.05,-465.78l1250.91 -322.64 0 -954.42 -1250.84 430.17c-685.17,235.66 -1281.97,440.88 -1805.12,621.17l0 -345.54c253.45,-98.15 523.53,-202.73 811.02,-313.99 308.8,-119.49 639.55,-247.29 994.52,-385.15 0.03,-282.26 0,-564.58 0.48,-847.77zm2275.9 3807.19l0 850.87 -2275.9 0 -0.45 0c0,-281.81 -0.03,-564.03 -0.03,-846.32 -355.39,30.93 -686.63,59.38 -995,85.85 -287.78,24.67 -557.57,47.95 -810.54,69.71l0 -346.18c253.45,-32.68 523.15,-67.52 810.54,-104.61l994.64 -128.35 0.84 1.94c363.72,67 692.5,127.5 991.64,182.07 294.94,53.69 561.35,102.45 802.6,146.55 170.89,31.19 331.14,60.9 481.66,88.47z"/>
   <path class="fil1" d="M804.64 3061.72l0 644.02 287.76 0c148.82,0 262.08,-27.65 339.13,-83.63 77.04,-55.97 115.89,-137.62 115.89,-244.3 0,-105.36 -35.56,-184.38 -106.02,-237.06 -70.45,-52.68 -175.81,-79.03 -316.07,-79.03l-320.69 0zm0 -1098.37l0 612.4 221.91 0c154.75,0 269.98,-26.34 347.03,-78.36 76.39,-52.02 114.58,-131.7 114.58,-238.37 0,-96.8 -36.22,-169.89 -107.99,-220.6 -72.44,-50.05 -178.46,-75.07 -318.72,-75.07l-256.81 0zm-715.13 -493.87l1122.74 0c331.23,0 580.79,59.26 748.06,178.45 167.25,119.19 250.88,296.32 250.88,532.06 0,158.05 -43.46,289.74 -131.04,394.45 -87.58,104.7 -214.67,180.43 -381.93,227.18 187.67,34.24 331.89,107.99 432.63,220.59 100.76,112.61 151.46,256.16 151.46,431.33 0,256.81 -92.19,447.78 -275.91,571.57 -183.72,124.46 -467.54,186.36 -850.12,186.36l-1066.77 0 0 -2741.99zm2211.71 0l2090.07 0 0 549.19 -679.56 0 0 2192.8 -730.94 0 0 -2192.8 -679.57 0 0 -549.19zm2923.55 1592.24l0 644.02 287.76 0c148.82,0 262.08,-27.65 339.13,-83.63 77.04,-55.97 115.89,-137.62 115.89,-244.3 0,-105.36 -35.56,-184.38 -106.02,-237.06 -70.45,-52.68 -175.82,-79.03 -316.07,-79.03l-320.69 0zm0 -1098.37l0 612.4 221.91 0c154.75,0 269.98,-26.34 347.03,-78.36 76.38,-52.02 114.58,-131.7 114.58,-238.37 0,-96.8 -36.22,-169.89 -107.99,-220.6 -72.44,-50.05 -178.46,-75.07 -318.72,-75.07l-256.81 0zm-715.13 -493.87l1122.74 0c331.23,0 580.79,59.26 748.06,178.45 167.25,119.19 250.88,296.32 250.88,532.06 0,158.05 -43.46,289.74 -131.04,394.45 -87.58,104.7 -214.67,180.43 -381.93,227.18 187.67,34.24 331.88,107.99 432.63,220.59 100.76,112.61 151.46,256.16 151.46,431.33 0,256.81 -92.19,447.78 -275.91,571.57 -183.72,124.46 -467.54,186.36 -850.12,186.36l-1066.77 0 0 -2741.99z"/>
   <path class="fil2" d="M12319.94 2085.81l-145.29 -9.39c18.31,-31.12 31.81,-63.37 40.04,-96.78 8.24,-33.18 12.35,-69.79 12.35,-109.6 0,-91.07 -31.57,-161.55 -94.95,-211.66 -63.15,-50.11 -152.63,-75.05 -268.41,-75.05 -111.66,0 -198.84,23.11 -261.08,69.1 -62.46,45.99 -93.58,109.83 -93.58,191.52 0,21.97 1.6,41.42 4.58,58.35 3.2,16.93 8.23,33.4 14.87,48.97l264.74 0 0 -138.67 131.8 0 0 302.04 -497.45 0c-16.47,-36.61 -29.06,-77.34 -37.53,-121.96 -8.46,-44.62 -12.81,-93.13 -12.81,-145.53 0,-142.09 41.87,-251.93 125.39,-329.72 83.52,-77.8 202.27,-116.7 356.04,-116.7 156.97,0 279.39,40.96 367.71,122.65 88.33,81.92 132.49,195.18 132.49,340.02 0,39.13 -3.2,77.34 -9.62,114.41 -6.63,37.29 -16.24,73.22 -29.29,108zm-323.54 704.3c37.98,20.13 66.59,45.99 85.58,77.8 18.99,31.8 28.37,69.55 28.37,113.48 0,60.41 -20.13,106.86 -60.4,139.13 -40.05,32.49 -97.71,48.74 -172.77,48.74l-486.23 0 0 -163.38 453.28 0c43.48,0 75.28,-7.32 95.65,-22.19 20.37,-14.65 30.43,-37.76 30.43,-68.88 0,-33.64 -14.87,-59.95 -44.62,-79.17 -29.74,-19.22 -71.16,-28.83 -124.25,-28.83l-410.49 0 0 -163.37 453.28 0c43.48,0 75.28,-7.32 95.65,-22.2 20.37,-14.65 30.43,-37.53 30.43,-68.19 0,-34.09 -14.87,-60.63 -44.62,-79.86 -29.74,-19.21 -71.16,-28.83 -124.25,-28.83l-410.49 0 0 -163.37 541.15 0c31.81,0 60.87,-0.46 87.18,-1.61 26.54,-1.14 51.71,-2.97 75.97,-5.03l0 149.19c-5.72,0.46 -15.33,1.37 -28.14,2.75 -33.64,2.74 -59.04,4.11 -75.97,4.11 36.6,16.02 65.67,40.28 87.18,73 21.28,32.49 32.03,68.65 32.03,108.46 0,42.56 -9.61,78.94 -29.06,109.6 -19.45,30.43 -47.82,53.55 -84.89,68.65zm-289.91 716.88c-65.22,0 -115.33,10.76 -150.34,32.49 -35,21.74 -52.62,52.41 -52.62,92.22 0,41.42 19.91,72.76 59.95,93.58 40.04,21.05 99.53,31.58 178.7,31.58 78.94,0 138.67,-10.53 178.71,-31.58 40.27,-20.82 60.4,-52.16 60.4,-93.58 0,-39.81 -17.61,-70.48 -52.85,-92.22 -35.47,-21.73 -85.35,-32.49 -150.1,-32.49l-71.85 0zm711.39 -163.37l0 163.37 -417.82 0c38.22,21.51 66.13,46.45 83.75,74.82 17.62,28.38 26.54,62.24 26.54,102.06 0,80.54 -31.12,141.86 -93.59,183.97 -62.23,42.33 -153.3,63.38 -272.97,63.38 -118.76,0 -209.83,-21.28 -273.21,-63.61 -63.15,-42.56 -94.73,-103.2 -94.73,-182.37 0,-41.41 9.83,-77.57 29.51,-107.77 19.45,-30.44 50.11,-56.52 91.53,-78.48 -13.04,0 -27.22,-0.46 -42.56,-1.38 -15.56,-0.92 -36.61,-2.52 -63.38,-4.58l0 -149.41 1026.93 0zm-74.14 739.76l0 171.61 -389.9 0 0 277.33 389.9 0 0 171.61 -952.79 0 0 -171.61 421.48 0 0 -277.33 -421.48 0 0 -171.61 952.79 0z"/>
   <path class="fil2" d="M82.11 4582.76l1020.37 0 0 273.87 -333.5 0 0 1258.9 -353.37 0 0 -1258.9 -333.5 0 0 -273.87zm1721.23 368.84l0 306.62c-2.21,0 -6.62,-0.74 -12.88,-2.21 -32.4,-6.99 -54.85,-10.67 -67,-10.67 -83.19,0 -144.29,25.4 -182.57,76.2 -38.65,50.43 -57.8,131.78 -57.8,244.05l0 549.94 -335.7 0 0 -895.96c0,-66.26 -0.74,-116.69 -2.58,-150.92 -1.84,-34.6 -4.41,-67 -8.1,-97.18l306.63 0c0.37,2.95 0.73,7 0.73,11.78 5.9,69.2 8.84,119.63 8.84,152.02l0 34.61c24.3,-68.47 63.31,-122.58 116.32,-162.7 53.37,-40.13 112.27,-60 177.05,-60 12.15,0 29.45,1.1 51.54,3.31 2.21,0.74 4.05,1.11 5.52,1.11zm609.2 236.32c-55.22,0 -98.28,30.92 -128.83,92.39 -30.55,61.47 -45.64,149.45 -45.64,263.56 0,113.74 15.09,201.34 45.64,262.82 30.55,61.47 73.61,92.39 128.83,92.39 55.95,0 99.02,-30.55 129.2,-91.29 30.19,-60.73 45.28,-148.71 45.28,-263.92 0,-115.58 -14.72,-203.93 -44.54,-264.66 -29.82,-60.75 -73.25,-91.29 -129.94,-91.29zm-0.37 -240.74c170.07,0 300.74,51.54 391.66,154.23 90.92,102.7 136.57,250.31 136.57,442.09 0,190.67 -45.65,337.54 -137.31,440.98 -91.65,103.44 -221.96,155.34 -390.92,155.34 -168.22,0 -298.15,-51.9 -389.81,-155.7 -91.66,-104.18 -137.68,-250.68 -137.68,-440.62 0,-191.41 45.66,-338.28 136.94,-441.72 91.29,-103.06 221.6,-154.6 390.55,-154.6zm1506.63 55.21l-18.03 258.04c-30.92,-16.2 -62.95,-29.45 -96.08,-38.65 -33.12,-9.2 -65.15,-13.99 -96.07,-13.99 -85.4,0 -150.19,26.51 -194.36,79.88 -44.17,53.01 -66.25,131.04 -66.25,233.74 0,116.32 21.35,205.4 63.68,267.25 42.33,61.83 103.06,92.76 181.84,92.76 39.75,0 78.77,-5.16 117.05,-15.1 38.28,-9.94 75.46,-24.66 110.43,-44.17l17.3 257.3c-55.21,20.25 -110.06,35.34 -164.54,45.28 -54.1,9.93 -108.59,15.09 -162.33,15.09 -159.02,0 -284.91,-54.11 -377.67,-162.7 -92.76,-108.59 -139.14,-256.56 -139.14,-443.19 0,-182.58 48.22,-326.14 145.03,-430.31 96.81,-104.18 228.59,-156.44 395.34,-156.44 48.22,0 95.71,4.42 142.45,13.62 46.75,8.84 93.87,22.82 141.35,41.59zm175.96 -541.1l333.49 0 0 973.99 296.33 -463.81 339.38 0 -343.8 520.86 375.09 623.2 -370.67 0 -296.33 -539.27 0 539.27 -333.49 0 0 -1654.24zm1369.69 1172.76c8.47,90.93 36.08,159.02 82.46,203.92 46.38,45.28 111.53,67.74 195.46,67.74 49.69,0 99.39,-7.37 149.08,-21.72 49.33,-14.73 100.13,-36.81 152.03,-66.63l10.67 245.15c-56.69,25.04 -115.58,44.18 -177.05,57.44 -61.11,13.25 -121.48,19.87 -181.11,19.87 -179.64,0 -319.14,-51.54 -418.53,-154.6 -99.02,-103.44 -148.71,-248.47 -148.71,-435.09 0,-180.74 45.27,-326.14 135.46,-436.94 90.18,-110.8 208.35,-166.01 354.48,-166.01 156.07,0 277.18,53.37 363.31,159.75 86.51,106.38 129.57,256.94 129.57,451.66 0,20.24 0,35.34 -0.36,45.27 -0.38,9.95 -1.11,19.89 -1.84,29.08l-644.92 1.11zm335.71 -185.52c0,-11.41 0.37,-22.83 1.1,-33.87 0.74,-11.41 1.11,-17.3 1.11,-18.04 0,-70.3 -13.99,-124.78 -41.96,-163.79 -28.35,-38.65 -67.73,-58.16 -118.9,-58.16 -57.79,0 -101.22,22.08 -130.68,65.89 -29.44,43.79 -47.11,113 -53,207.97l342.33 0zm1475.71 -115.21l0 782.21 -335.71 0 0 -706.75c0,-62.58 -10.31,-108.23 -30.92,-137.31 -20.25,-29.08 -52.64,-43.8 -96.44,-43.8 -49.69,0 -87.6,20.25 -113.75,60.37 -26.13,40.49 -39.38,99.02 -39.38,175.95l0 651.54 -335.7 0 0 -896.33c0,-66.25 -0.74,-116.32 -2.58,-150.92 -1.84,-34.23 -4.42,-66.63 -8.1,-96.81l306.63 0c4.05,34.6 7.36,65.89 8.83,94.24 1.84,28.34 2.95,54.84 2.95,80.24 25.76,-61.84 67.35,-110.43 124.41,-145.77 57.06,-35.34 122.21,-53 195.46,-53 105.65,0 185.9,32.76 241.48,98.28 55.21,65.53 82.82,161.22 82.82,287.86zm593.74 263.55c0,93.5 14.73,165.28 44.54,215.71 29.82,50.43 72.52,75.46 127.74,75.46 56.68,0 99.75,-28.71 128.83,-86.13 29.08,-57.8 43.43,-142.83 43.43,-255.83 0,-111.91 -14.72,-197.31 -44.17,-255.47 -29.45,-58.16 -72.15,-87.24 -128.09,-87.24 -54.49,0 -96.82,25.41 -127,75.84 -30.19,50.8 -45.28,122.94 -45.28,216.43l0 101.23zm-335.7 -1135.58l335.7 0 0 669.57c39.02,-64.79 81.35,-111.53 127.36,-140.61 46.02,-28.72 100.86,-43.07 164.91,-43.07 133.25,0 234.12,50.43 302.58,151.65 68.83,100.87 103.07,249.2 103.07,444.67 0,192.52 -34.6,340.13 -104.18,442.82 -69.2,102.34 -168.22,153.5 -297.05,153.5 -68.47,0 -127.73,-16.56 -178.53,-49.33 -50.8,-33.12 -94.6,-83.55 -131.04,-151.65 -1.47,47.11 -2.95,83.93 -4.42,109.69 -1.47,26.14 -3.31,48.22 -5.52,67l-312.88 0 0 -1654.24zm1813.26 1117.54c-13.63,-1.46 -27.98,-2.57 -42.7,-3.31 -14.73,-0.73 -33.5,-1.1 -56.69,-1.1 -79.88,0 -140.25,15.46 -181.47,46.38 -40.86,30.92 -61.47,75.82 -61.47,135.09 0,47.48 13.24,84.67 40.12,111.54 26.5,26.87 63.31,40.49 110.06,40.49 65.52,0 113.74,-21.36 145.03,-64.05 31.28,-43.07 47.12,-109.7 47.12,-200.25l0 -64.79zm326.87 -118.53l0 421.85c0,49.33 1.1,92.39 3.31,128.84 2.21,36.81 5.52,71.41 10.68,104.54l-313.99 0 -12.89 -147.25c-44.53,57.06 -94.97,100.13 -151.65,128.47 -56.33,28.72 -118.9,43.07 -187,43.07 -99.39,0 -179.26,-32.39 -240,-96.81 -60.73,-64.79 -91.29,-149.45 -91.29,-254.35 0,-127 46.75,-224.92 140.25,-293.02 93.5,-68.09 227.85,-102.33 403.44,-102.33l112.27 0 0 -32.39c0,-61.47 -18.77,-107.85 -56.32,-139.14 -37.18,-31.29 -92.4,-47.11 -164.91,-47.11 -51.9,0 -103.8,8.83 -154.97,26.87 -51.53,18.03 -99.39,44.54 -143.19,79.14l-17.3 -254.73c70.67,-25.77 138.77,-45.64 204.66,-58.9 65.89,-13.25 129.2,-19.87 190.31,-19.87 174.11,0 295.95,36.44 364.79,108.96 69.2,72.88 103.8,207.6 103.8,404.16zm249.57 -488.83l335.7 0 0 706.75c0,62.58 10.31,108.23 31.29,137.3 20.99,29.08 53.38,43.81 97.18,43.81 49.69,0 87.24,-20.25 113.01,-60.37 26.13,-40.49 39.01,-99.02 39.01,-175.95l0 -651.54 335.71 0 0 899.64c0,67.36 0.74,117.79 2.58,151.28 1.84,33.5 4.78,64.42 8.1,93.14l-306.63 0c-3.31,-32.4 -6.26,-62.58 -7.73,-90.55 -1.84,-27.98 -2.95,-55.22 -2.95,-81.72 -26.49,61.47 -68.09,109.69 -124.41,144.29 -56.69,34.97 -121.84,52.27 -196.2,52.27 -107.11,0 -188.1,-32.39 -242.58,-96.81 -54.84,-64.41 -82.08,-160.12 -82.08,-287.12l0 -784.42z"/>
  </g>
 </g>
</svg>
