<?xml version="1.0" encoding="UTF-8"?>
<!DOCTYPE svg PUBLIC "-//W3C//DTD SVG 1.1//EN" "http://www.w3.org/Graphics/SVG/1.1/DTD/svg11.dtd">
<!-- Creator: CorelDRAW 2017 -->
<svg xmlns="http://www.w3.org/2000/svg" xml:space="preserve" width="55mm" height="28mm" version="1.1" style="shape-rendering:geometricPrecision; text-rendering:geometricPrecision; image-rendering:optimizeQuality; fill-rule:evenodd; clip-rule:evenodd"
viewBox="0 0 5500 2800"
 xmlns:xlink="http://www.w3.org/1999/xlink">
 <defs>
  <style type="text/css">
   <![CDATA[
    .fil0 {fill:black}
    .fil2 {fill:black;fill-rule:nonzero}
    .fil1 {fill:white;fill-rule:nonzero}
   ]]>
  </style>
 </defs>
 <g id="Layer_x0020_1">
  <metadata id="CorelCorpID_0Corel-Layer"/>
  <g id="_4780883408">
   <path class="fil0" d="M3785.88 88.13c156.96,105.92 298.88,201.71 427.95,288.26 38.28,25.58 75.37,50.58 111.44,74.78l442.77 297.64 0.03 0 0.02 0.06 -0.02 0 0 736.66c-64.96,-19.8 -134.16,-40.98 -207.87,-63.5 -104.12,-31.84 -219.1,-67.05 -346.37,-105.79 -129.08,-39.3 -271.02,-82.76 -427.97,-130.91l-0.18 0.41 0 -0.82c-153.38,32.89 -296.12,63.65 -429.21,92.24 -124.22,26.7 -240.62,51.76 -350,75.31l0 -149.2c225.78,-58.4 483.3,-124.78 778.99,-201.01l539.84 -139.25 0 -411.88 -539.81 185.64c-295.7,101.7 -553.25,190.27 -779.02,268.07l0 -149.12c109.38,-42.36 225.94,-87.49 350,-135.5 133.27,-51.57 276.01,-106.72 429.2,-166.22 0.01,-121.81 0,-243.65 0.21,-365.87zm982.19 1643.04l0 367.2 -982.19 0 -0.2 0c0,-121.62 -0.01,-243.41 -0.01,-365.24 -153.37,13.35 -296.32,25.63 -429.41,37.05 -124.19,10.65 -240.62,20.7 -349.79,30.09l0 -149.4c109.38,-14.1 225.77,-29.14 349.79,-45.15l429.25 -55.39 0.37 0.84c156.96,28.91 298.85,55.03 427.95,78.57 127.29,23.18 242.25,44.22 346.37,63.25 73.75,13.46 142.91,26.28 207.87,38.18z"/>
   <path class="fil1" d="M400 1383.48l0 277.94 124.19 0c64.22,0 113.1,-11.94 146.35,-36.09 33.25,-24.16 50.02,-59.4 50.02,-105.44 0,-45.47 -15.35,-79.57 -45.76,-102.3 -30.4,-22.74 -75.87,-34.11 -136.4,-34.11l-138.4 0zm0 -474.01l0 264.29 95.77 0c66.78,0 116.51,-11.37 149.76,-33.82 32.97,-22.45 49.45,-56.84 49.45,-102.87 0,-41.78 -15.63,-73.32 -46.6,-95.2 -31.26,-21.6 -77.02,-32.4 -137.55,-32.4l-110.83 0zm-308.62 -213.14l484.53 0c142.94,0 250.65,25.58 322.83,77.02 72.18,51.43 108.27,127.88 108.27,229.61 0,68.21 -18.75,125.04 -56.55,170.23 -37.79,45.18 -92.64,77.87 -164.83,98.04 81,14.78 143.23,46.61 186.71,95.2 43.48,48.6 65.36,110.55 65.36,186.15 0,110.83 -39.78,193.24 -119.07,246.66 -79.28,53.72 -201.77,80.43 -366.88,80.43l-460.37 0 0 -1183.34zm954.49 0l901.99 0 0 237.01 -293.28 0 0 946.33 -315.44 0 0 -946.33 -293.27 0 0 -237.01zm1261.69 687.15l0 277.94 124.18 0c64.23,0 113.11,-11.94 146.36,-36.09 33.25,-24.16 50.01,-59.4 50.01,-105.44 0,-45.47 -15.35,-79.57 -45.75,-102.3 -30.41,-22.74 -75.88,-34.11 -136.41,-34.11l-138.39 0zm0 -474.01l0 264.29 95.76 0c66.79,0 116.52,-11.37 149.77,-33.82 32.96,-22.45 49.44,-56.84 49.44,-102.87 0,-41.78 -15.62,-73.32 -46.6,-95.2 -31.26,-21.6 -77.01,-32.4 -137.54,-32.4l-110.83 0zm-308.63 -213.14l484.53 0c142.95,0 250.65,25.58 322.84,77.02 72.18,51.43 108.27,127.88 108.27,229.61 0,68.21 -18.76,125.04 -56.55,170.23 -37.8,45.18 -92.65,77.87 -164.83,98.04 80.99,14.78 143.23,46.61 186.71,95.2 43.48,48.6 65.36,110.55 65.36,186.15 0,110.83 -39.79,193.24 -119.07,246.66 -79.29,53.72 -201.77,80.43 -366.88,80.43l-460.38 0 0 -1183.34z"/>
   <path class="fil2" d="M5369.56 962.32l-62.71 -4.05c7.9,-13.43 13.73,-27.35 17.28,-41.77 3.56,-14.32 5.33,-30.12 5.33,-47.3 0,-39.3 -13.62,-69.72 -40.98,-91.35 -27.25,-21.62 -65.86,-32.38 -115.83,-32.38 -48.19,0 -85.81,9.97 -112.67,29.82 -26.96,19.85 -40.39,47.4 -40.39,82.65 0,9.48 0.69,17.87 1.98,25.18 1.38,7.31 3.55,14.42 6.42,21.13l114.25 0 0 -59.84 56.88 0 0 130.35 -214.68 0c-7.11,-15.8 -12.54,-33.38 -16.2,-52.63 -3.65,-19.26 -5.53,-40.19 -5.53,-62.81 0,-61.32 18.07,-108.72 54.12,-142.29 36.04,-33.58 87.29,-50.37 153.65,-50.37 67.74,0 120.57,17.68 158.69,52.93 38.12,35.36 57.17,84.24 57.17,146.74 0,16.89 -1.38,33.38 -4.14,49.38 -2.87,16.09 -7.02,31.6 -12.64,46.61zm-139.63 303.94c16.39,8.7 28.73,19.85 36.93,33.58 8.19,13.72 12.24,30.02 12.24,48.98 0,26.07 -8.69,46.11 -26.07,60.04 -17.28,14.02 -42.16,21.03 -74.55,21.03l-209.84 0 0 -70.5 195.62 0c18.76,0 32.49,-3.17 41.27,-9.58 8.8,-6.32 13.14,-16.3 13.14,-29.73 0,-14.51 -6.42,-25.87 -19.26,-34.16 -12.83,-8.3 -30.71,-12.45 -53.62,-12.45l-177.15 0 0 -70.5 195.62 0c18.76,0 32.49,-3.16 41.27,-9.58 8.8,-6.32 13.14,-16.2 13.14,-29.43 0,-14.71 -6.42,-26.17 -19.26,-34.46 -12.83,-8.3 -30.71,-12.45 -53.62,-12.45l-177.15 0 0 -70.5 233.54 0c13.72,0 26.26,-0.2 37.62,-0.69 11.45,-0.5 22.32,-1.29 32.79,-2.18l0 64.39c-2.47,0.2 -6.62,0.59 -12.15,1.18 -14.52,1.19 -25.48,1.78 -32.79,1.78 15.8,6.91 28.35,17.38 37.63,31.5 9.18,14.02 13.82,29.63 13.82,46.81 0,18.37 -4.15,34.07 -12.54,47.3 -8.39,13.13 -20.64,23.11 -36.63,29.62zm-125.12 309.38c-28.14,0 -49.77,4.65 -64.88,14.03 -15.1,9.38 -22.71,22.61 -22.71,39.79 0,17.88 8.59,31.4 25.88,40.39 17.27,9.08 42.95,13.63 77.12,13.63 34.06,0 59.84,-4.55 77.12,-13.63 17.38,-8.99 26.07,-22.51 26.07,-40.39 0,-17.18 -7.61,-30.41 -22.81,-39.79 -15.31,-9.38 -36.83,-14.03 -64.78,-14.03l-31.01 0zm307.01 -70.5l0 70.5 -180.31 0c16.49,9.29 28.54,20.05 36.14,32.29 7.6,12.25 11.45,26.86 11.45,44.05 0,34.76 -13.43,61.22 -40.39,79.39 -26.85,18.27 -66.16,27.35 -117.8,27.35 -51.25,0 -90.56,-9.18 -117.91,-27.45 -27.25,-18.36 -40.88,-44.53 -40.88,-78.7 0,-17.87 4.25,-33.47 12.74,-46.51 8.39,-13.14 21.62,-24.39 39.5,-33.87 -5.63,0 -11.75,-0.2 -18.37,-0.59 -6.71,-0.4 -15.8,-1.09 -27.35,-1.98l0 -64.48 443.18 0zm-31.99 319.25l0 74.06 -168.27 0 0 119.69 168.27 0 0 74.06 -411.19 0 0 -74.06 181.89 0 0 -119.69 -181.89 0 0 -74.06 411.19 0z"/>
   <path class="fil2" d="M88.18 2039.9l440.36 0 0 118.2 -143.93 0 0 543.29 -152.5 0 0 -543.29 -143.93 0 0 -118.2zm742.82 159.18l0 132.33c-0.95,0 -2.86,-0.32 -5.56,-0.96 -13.98,-3.02 -23.67,-4.6 -28.91,-4.6 -35.9,0 -62.27,10.96 -78.79,32.88 -16.68,21.76 -24.95,56.87 -24.95,105.32l0 237.34 -144.87 0 0 -386.66c0,-28.6 -0.32,-50.36 -1.12,-65.13 -0.79,-14.94 -1.9,-28.92 -3.49,-41.94l132.33 0c0.16,1.27 0.31,3.02 0.31,5.08 2.55,29.87 3.82,51.63 3.82,65.61l0 14.93c10.48,-29.55 27.32,-52.9 50.2,-70.21 23.03,-17.32 48.45,-25.9 76.41,-25.9 5.24,0 12.71,0.48 22.24,1.43 0.95,0.32 1.74,0.48 2.38,0.48zm262.91 101.99c-23.83,0 -42.42,13.34 -55.6,39.87 -13.19,26.53 -19.7,64.5 -19.7,113.74 0,49.09 6.51,86.89 19.7,113.43 13.18,26.52 31.77,39.87 55.6,39.87 24.14,0 42.73,-13.19 55.76,-39.4 13.02,-26.21 19.54,-64.18 19.54,-113.9 0,-49.88 -6.36,-88.01 -19.23,-114.22 -12.86,-26.21 -31.61,-39.39 -56.07,-39.39zm-0.16 -103.9c73.39,0 129.78,22.24 169.02,66.56 39.24,44.32 58.94,108.03 58.94,190.79 0,82.29 -19.7,145.67 -59.25,190.31 -39.56,44.64 -95.8,67.04 -168.71,67.04 -72.6,0 -128.67,-22.4 -168.23,-67.2 -39.56,-44.95 -59.41,-108.18 -59.41,-190.15 0,-82.6 19.7,-145.99 59.09,-190.63 39.4,-44.48 95.63,-66.72 168.55,-66.72zm650.2 23.83l-7.78 111.36c-13.35,-6.99 -27.17,-12.71 -41.46,-16.68 -14.3,-3.97 -28.12,-6.04 -41.47,-6.04 -36.85,0 -64.81,11.44 -83.87,34.48 -19.06,22.87 -28.59,56.55 -28.59,100.87 0,50.2 9.21,88.64 27.48,115.33 18.27,26.69 44.48,40.03 78.47,40.03 17.16,0 34,-2.22 50.52,-6.51 16.52,-4.29 32.56,-10.65 47.66,-19.07l7.46 111.05c-23.83,8.73 -47.5,15.25 -71.01,19.54 -23.35,4.28 -46.86,6.51 -70.05,6.51 -68.63,0 -122.96,-23.35 -162.99,-70.21 -40.03,-46.87 -60.05,-110.73 -60.05,-191.27 0,-78.79 20.81,-140.75 62.59,-185.7 41.78,-44.96 98.65,-67.52 170.61,-67.52 20.81,0 41.31,1.91 61.48,5.88 20.18,3.81 40.51,9.85 61,17.95zm75.94 -233.52l143.92 0 0 420.34 127.88 -200.16 146.47 0 -148.38 224.78 161.88 268.95 -159.97 0 -127.88 -232.73 0 232.73 -143.92 0 0 -713.91zm591.1 506.12c3.66,39.24 15.57,68.63 35.59,88.01 20.01,19.54 48.13,29.23 84.35,29.23 21.45,0 42.89,-3.18 64.34,-9.38 21.29,-6.35 43.21,-15.88 65.61,-28.75l4.6 105.8c-24.46,10.8 -49.88,19.06 -76.41,24.78 -26.37,5.72 -52.42,8.58 -78.15,8.58 -77.53,0 -137.73,-22.24 -180.63,-66.72 -42.73,-44.64 -64.17,-107.23 -64.17,-187.77 0,-78 19.54,-140.75 58.46,-188.56 38.92,-47.82 89.91,-71.65 152.98,-71.65 67.35,0 119.62,23.04 156.79,68.95 37.33,45.91 55.91,110.88 55.91,194.92 0,8.73 0,15.25 -0.15,19.53 -0.16,4.29 -0.48,8.58 -0.8,12.55l-278.32 0.48zm144.88 -80.07c0,-4.92 0.16,-9.84 0.48,-14.61 0.32,-4.92 0.48,-7.47 0.48,-7.78 0,-30.34 -6.04,-53.86 -18.11,-70.69 -12.24,-16.68 -29.23,-25.1 -51.31,-25.1 -24.95,0 -43.69,9.53 -56.4,28.43 -12.71,18.9 -20.33,48.77 -22.87,89.75l147.73 0zm636.86 -49.72l0 337.58 -144.88 0 0 -305.01c0,-27.01 -4.45,-46.7 -13.34,-59.25 -8.74,-12.55 -22.72,-18.91 -41.62,-18.91 -21.45,0 -37.81,8.74 -49.09,26.05 -11.28,17.48 -17,42.74 -17,75.94l0 281.18 -144.87 0 0 -386.82c0,-28.6 -0.32,-50.2 -1.12,-65.13 -0.79,-14.78 -1.9,-28.76 -3.49,-41.78l132.33 0c1.74,14.93 3.17,28.43 3.81,40.66 0.79,12.24 1.27,23.68 1.27,34.64 11.12,-26.69 29.07,-47.66 53.69,-62.91 24.63,-15.25 52.75,-22.88 84.36,-22.88 45.59,0 80.22,14.14 104.21,42.42 23.83,28.28 35.74,69.58 35.74,124.22zm256.24 113.74c0,40.35 6.35,71.33 19.22,93.1 12.87,21.76 31.29,32.56 55.12,32.56 24.47,0 43.05,-12.39 55.6,-37.17 12.55,-24.94 18.75,-61.64 18.75,-110.41 0,-48.29 -6.36,-85.15 -19.07,-110.24 -12.71,-25.1 -31.13,-37.65 -55.28,-37.65 -23.51,0 -41.78,10.96 -54.8,32.72 -13.03,21.93 -19.54,53.06 -19.54,93.41l0 43.68zm-144.88 -490.07l144.88 0 0 288.96c16.84,-27.96 35.1,-48.13 54.96,-60.68 19.86,-12.39 43.53,-18.59 71.17,-18.59 57.5,0 101.03,21.77 130.58,65.45 29.7,43.53 44.48,107.55 44.48,191.9 0,83.08 -14.93,146.79 -44.96,191.1 -29.86,44.17 -72.6,66.25 -128.2,66.25 -29.54,0 -55.12,-7.15 -77.04,-21.29 -21.92,-14.29 -40.83,-36.06 -56.55,-65.45 -0.64,20.34 -1.27,36.22 -1.91,47.34 -0.64,11.28 -1.43,20.81 -2.38,28.92l-135.03 0 0 -713.91zm782.53 482.29c-5.88,-0.63 -12.07,-1.11 -18.43,-1.43 -6.35,-0.32 -14.45,-0.47 -24.46,-0.47 -34.47,0 -60.53,6.67 -78.32,20.01 -17.63,13.34 -26.53,32.72 -26.53,58.3 0,20.49 5.72,36.54 17.32,48.14 11.44,11.59 27.32,17.47 47.5,17.47 28.27,0 49.08,-9.22 62.59,-27.64 13.5,-18.59 20.33,-47.34 20.33,-86.42l0 -27.96zm141.07 -51.15l0 182.05c0,21.29 0.47,39.87 1.43,55.6 0.95,15.89 2.38,30.82 4.6,45.12l-135.5 0 -5.56 -63.55c-19.22,24.62 -40.99,43.21 -65.45,55.44 -24.31,12.4 -51.31,18.59 -80.7,18.59 -42.89,0 -77.36,-13.98 -103.58,-41.78 -26.21,-27.96 -39.39,-64.5 -39.39,-109.77 0,-54.81 20.17,-97.06 60.52,-126.45 40.35,-29.39 98.33,-44.16 174.11,-44.16l48.45 0 0 -13.98c0,-26.53 -8.1,-46.55 -24.3,-60.05 -16.05,-13.5 -39.88,-20.33 -71.17,-20.33 -22.4,0 -44.8,3.81 -66.88,11.59 -22.24,7.79 -42.89,19.23 -61.8,34.16l-7.46 -109.93c30.5,-11.12 59.89,-19.7 88.32,-25.42 28.44,-5.72 55.76,-8.58 82.13,-8.58 75.14,0 127.72,15.73 157.43,47.03 29.86,31.45 44.8,89.59 44.8,174.42zm107.7 -210.96l144.88 0 0 305c0,27.01 4.45,46.71 13.5,59.26 9.06,12.55 23.04,18.9 41.94,18.9 21.44,0 37.65,-8.74 48.77,-26.05 11.28,-17.48 16.84,-42.73 16.84,-75.93l0 -281.18 144.88 0 0 388.25c0,29.06 0.31,50.83 1.11,65.28 0.79,14.46 2.06,27.8 3.49,40.2l-132.33 0c-1.43,-13.98 -2.7,-27.01 -3.33,-39.08 -0.8,-12.08 -1.27,-23.83 -1.27,-35.27 -11.44,26.53 -29.39,47.34 -53.7,62.27 -24.46,15.09 -52.58,22.56 -84.67,22.56 -46.22,0 -81.18,-13.98 -104.68,-41.78 -23.68,-27.8 -35.43,-69.1 -35.43,-123.91l0 -338.52z"/>
  </g>
 </g>
</svg>
