<?xml version="1.0" encoding="UTF-8"?>
<!DOCTYPE svg PUBLIC "-//W3C//DTD SVG 1.1//EN" "http://www.w3.org/Graphics/SVG/1.1/DTD/svg11.dtd">
<!-- Creator: CorelDRAW 2017 -->
<svg xmlns="http://www.w3.org/2000/svg" xml:space="preserve" width="7.59843in" height="2.08661in" version="1.1" style="shape-rendering:geometricPrecision; text-rendering:geometricPrecision; image-rendering:optimizeQuality; fill-rule:evenodd; clip-rule:evenodd"
viewBox="0 0 7598.43 2086.61"
 xmlns:xlink="http://www.w3.org/1999/xlink">
 <defs>
  <style type="text/css">
   <![CDATA[
    .fil3 {fill:#7E3000}
    .fil1 {fill:#9A3D00}
    .fil2 {fill:#DC5800}
    .fil0 {fill:#FF6600}
    .fil4 {fill:white;fill-rule:nonzero}
    .fil5 {fill:white;fill-rule:nonzero}
   ]]>
  </style>
 </defs>
 <g id="Layer_x0020_1">
  <metadata id="CorelCorpID_0Corel-Layer"/>
  <g id="_2547333394096">
   <polygon class="fil0" points="6887.17,609.42 6895.24,1903.39 7525.06,1101.28 7161.78,180.94 "/>
   <polygon class="fil1" points="6900.79,611.69 6892.72,1905.66 6262.91,1103.55 6626.19,183.21 "/>
   <polygon class="fil2" points="7525.06,1101.28 6887.18,609.42 6895.25,1903.39 "/>
   <polygon class="fil3" points="6262.91,1103.55 6900.79,611.69 6892.72,1905.66 "/>
   <path class="fil4" d="M579.09 1257.91c8.57,0 15.52,2.68 20.88,8.03 5.35,5.35 8.02,12.31 8.02,20.87 0,7.49 -2.68,13.91 -8.02,19.27 -5.36,5.35 -12.31,8.02 -20.88,8.02l-476.83 0c-8.56,0 -15.52,-2.41 -20.87,-7.22 -5.35,-4.81 -8.03,-10.97 -8.03,-18.46 0,-2.14 0.54,-5.35 1.61,-9.63 1.07,-4.28 2.68,-7.49 4.81,-9.63l428.66 -656.64 -390.13 0c-8.56,0 -15.52,-2.68 -20.87,-8.03 -5.36,-5.35 -8.03,-11.77 -8.03,-19.26 0,-8.57 2.67,-15.52 8.03,-20.88 5.35,-5.35 12.31,-8.02 20.87,-8.02l444.72 0c8.56,0 15.52,2.67 20.87,8.02 5.35,5.36 8.03,12.31 8.03,20.88 0,6.41 -1.6,11.77 -4.81,16.05l-430.27 656.64 422.24 0zm1277.86 -711.22c37.46,0 73.31,7.22 107.56,21.67 34.25,14.45 64.49,34.52 90.71,60.2 26.22,25.69 47.09,56.19 62.61,91.52 15.52,35.31 23.28,73.85 23.28,115.59 0,28.9 -3.74,51.65 -11.24,68.23 -7.49,16.59 -17.39,28.63 -29.7,36.12 -12.31,7.5 -26.5,12.04 -42.54,13.65 -16.06,1.6 -32.65,2.41 -49.77,2.41l-380.5 0 0 75.46c0,36.39 6.69,69.3 20.07,98.74 13.37,29.43 32.11,54.31 56.19,74.65 24.09,20.34 52.72,35.86 85.9,46.56 33.18,10.7 69.57,16.06 109.17,16.06 33.18,0 60.48,-3.48 81.89,-10.44 21.41,-6.95 38.8,-14.45 52.18,-22.47 13.37,-8.03 24.08,-15.52 32.11,-22.48 8.03,-6.96 15.79,-10.44 23.28,-10.44 7.49,0 14.18,3.21 20.06,9.63 5.89,6.42 8.83,12.85 8.83,19.27 0,7.5 -5.08,16.59 -15.25,27.29 -10.17,10.71 -24.89,20.87 -44.15,30.5 -19.27,9.63 -42.55,17.93 -69.84,24.89 -27.3,6.96 -58.07,10.44 -92.31,10.44 -47.1,0 -90.44,-6.96 -130.05,-20.87 -39.6,-13.92 -73.85,-33.71 -102.74,-59.4 -28.9,-25.69 -51.38,-56.46 -67.43,-92.31 -16.06,-35.85 -24.09,-75.73 -24.09,-119.61l0 -200.69c0,-38.54 7.5,-74.92 22.48,-109.17 14.98,-34.25 35.59,-64.49 61.81,-90.71 26.22,-26.22 56.73,-46.83 91.51,-61.81 34.79,-14.98 71.44,-22.48 109.98,-22.48zm131.65 353.2c39.6,0 65.56,-3.74 77.87,-11.24 12.31,-7.49 18.46,-23.54 18.46,-48.16 0,-28.9 -5.36,-57.53 -16.06,-85.89 -10.71,-28.37 -25.96,-53.79 -45.76,-76.27 -19.8,-22.47 -43.89,-40.67 -72.25,-54.58 -28.37,-13.91 -59.67,-20.87 -93.92,-20.87 -32.11,0 -62.35,6.15 -90.71,18.46 -28.37,12.31 -52.72,28.9 -73.05,49.77 -20.34,20.87 -36.39,45.22 -48.17,73.05 -11.77,27.83 -17.66,56.73 -17.66,86.7l0 69.03 361.23 0zm1438.4 -353.2c37.46,0 73.31,7.22 107.57,21.67 34.25,14.45 64.49,34.52 90.7,60.2 26.23,25.69 47.1,56.19 62.62,91.52 15.52,35.31 23.28,73.85 23.28,115.59 0,28.9 -3.74,51.65 -11.24,68.23 -7.49,16.59 -17.39,28.63 -29.7,36.12 -12.31,7.5 -26.5,12.04 -42.55,13.65 -16.06,1.6 -32.65,2.41 -49.77,2.41l-380.5 0 0 75.46c0,36.39 6.69,69.3 20.07,98.74 13.38,29.43 32.11,54.31 56.19,74.65 24.09,20.34 52.71,35.86 85.9,46.56 33.18,10.7 69.57,16.06 109.17,16.06 33.18,0 60.48,-3.48 81.88,-10.44 21.41,-6.95 38.8,-14.45 52.18,-22.47 13.38,-8.03 24.08,-15.52 32.11,-22.48 8.03,-6.96 15.79,-10.44 23.28,-10.44 7.49,0 14.18,3.21 20.07,9.63 5.89,6.42 8.83,12.85 8.83,19.27 0,7.5 -5.08,16.59 -15.25,27.29 -10.17,10.71 -24.89,20.87 -44.15,30.5 -19.27,9.63 -42.55,17.93 -69.84,24.89 -27.29,6.96 -58.06,10.44 -92.31,10.44 -47.09,0 -90.44,-6.96 -130.04,-20.87 -39.6,-13.92 -73.85,-33.71 -102.75,-59.4 -28.9,-25.69 -51.38,-56.46 -67.43,-92.31 -16.06,-35.85 -24.09,-75.73 -24.09,-119.61l0 -200.69c0,-38.54 7.5,-74.92 22.48,-109.17 14.98,-34.25 35.59,-64.49 61.81,-90.71 26.22,-26.22 56.73,-46.83 91.51,-61.81 34.79,-14.98 71.44,-22.48 109.98,-22.48zm131.65 353.2c39.6,0 65.56,-3.74 77.87,-11.24 12.31,-7.49 18.46,-23.54 18.46,-48.16 0,-28.9 -5.36,-57.53 -16.06,-85.89 -10.7,-28.37 -25.96,-53.79 -45.75,-76.27 -19.81,-22.47 -43.89,-40.67 -72.25,-54.58 -28.36,-13.91 -59.67,-20.87 -93.92,-20.87 -32.11,0 -62.35,6.15 -90.71,18.46 -28.36,12.31 -52.71,28.9 -73.05,49.77 -20.34,20.87 -36.39,45.22 -48.17,73.05 -11.77,27.83 -17.66,56.73 -17.66,86.7l0 69.03 361.24 0zm1661.56 -72.24c0,-32.11 -5.35,-61.81 -16.06,-89.11 -10.7,-27.29 -25.42,-50.84 -44.15,-70.64 -18.73,-19.8 -40.67,-35.59 -65.83,-47.37 -25.15,-11.77 -52.18,-17.66 -81.08,-17.66 -26.76,0 -53.24,5.35 -79.47,16.06 -26.22,10.7 -49.5,25.95 -69.83,45.76 -20.33,19.8 -36.93,44.15 -49.77,73.05 -12.85,28.9 -19.27,61.54 -19.27,97.93l0 449.53c0,7.5 -2.67,14.19 -8.02,20.07 -5.35,5.89 -12.31,8.83 -20.87,8.83 -8.57,0 -15.25,-2.94 -20.07,-8.83 -4.81,-5.89 -7.22,-12.58 -7.22,-20.07l0 -701.59c0,-18.19 9.09,-27.29 27.29,-27.29 8.56,0 15.52,2.41 20.87,7.22 5.35,4.81 8.02,11.5 8.02,20.07l0 85.09c18.2,-31.03 44.96,-59.13 80.28,-84.28 35.32,-25.15 80.27,-37.73 134.87,-37.73 55.65,0 104.35,14.72 146.09,44.15 41.74,29.43 73.31,68.23 94.72,116.39 27.83,-54.58 63.69,-94.99 107.57,-121.22 43.89,-26.22 89.37,-39.33 136.47,-39.33 33.18,0 65.83,6.42 97.93,19.27 32.11,12.84 60.21,31.57 84.29,56.19 24.08,24.62 43.62,54.85 58.6,90.7 14.98,35.85 22.48,76.8 22.48,122.82l0 449.53c0,7.5 -2.67,14.19 -8.03,20.07 -5.35,5.89 -12.31,8.83 -20.87,8.83 -7.49,0 -13.91,-2.94 -19.27,-8.83 -5.35,-5.89 -8.02,-12.58 -8.02,-20.07l0 -449.53c0,-38.53 -6.15,-72.24 -18.46,-101.15 -12.31,-28.9 -28.36,-53.25 -48.16,-73.05 -19.8,-19.8 -42.28,-34.52 -67.43,-44.15 -25.15,-9.63 -50.04,-14.45 -74.65,-14.45 -26.76,0 -53.25,5.35 -79.48,16.06 -26.22,10.7 -49.5,25.95 -69.84,45.76 -20.33,19.8 -36.66,43.35 -48.96,70.64 -12.31,27.29 -18.46,57.53 -18.46,90.7l0 460.78c0,9.63 -2.94,16.59 -8.83,20.87 -5.89,4.28 -12.57,6.42 -20.07,6.42 -6.42,0 -12.57,-2.14 -18.46,-6.42 -5.89,-4.28 -8.83,-11.24 -8.83,-20.87l0 -459.17z"/>
   <path class="fil5" d="M168.16 1843.29c19.77,0 33.89,-3.84 42.37,-11.53 8.48,-7.69 12.71,-16.87 12.71,-27.54 0,-12.24 -2.91,-21.65 -8.71,-28.24 -5.81,-6.59 -13.1,-11.85 -21.89,-15.77 -8.79,-3.93 -18.36,-7.22 -28.72,-9.89 -10.36,-2.67 -19.93,-6.04 -28.72,-10.12 -8.79,-4.08 -16.08,-9.73 -21.89,-16.95 -5.8,-7.22 -8.71,-17.26 -8.71,-30.13 0,-6.91 1.33,-14.04 4,-21.42 2.67,-7.38 6.82,-13.97 12.47,-19.77 5.65,-5.81 12.87,-10.59 21.65,-14.36 8.79,-3.77 19.3,-5.65 31.54,-5.65 6.9,0 13.81,0.63 20.71,1.88 6.9,1.26 13.02,2.83 18.36,4.71 5.33,1.88 9.73,4 13.18,6.35 3.45,2.35 5.18,4.63 5.18,6.83 0,1.57 -0.78,3.53 -2.35,5.89 -1.57,2.35 -3.45,3.53 -5.65,3.53 -1.57,0 -3.69,-0.63 -6.35,-1.88 -2.67,-1.26 -5.96,-2.74 -9.89,-4.47 -3.92,-1.72 -8.63,-3.22 -14.12,-4.47 -5.49,-1.26 -11.69,-1.88 -18.59,-1.88 -10.04,0 -18.44,1.41 -25.19,4.24 -6.75,2.82 -12.24,6.43 -16.48,10.83 -4.24,4.39 -7.3,9.18 -9.18,14.36 -1.89,5.18 -2.83,10.12 -2.83,14.83 0,10.36 2.91,18.28 8.71,23.78 5.81,5.49 13.1,9.96 21.89,13.41 8.79,3.45 18.36,6.43 28.72,8.94 10.35,2.51 19.93,6.12 28.72,10.83 8.79,4.71 16.08,11.22 21.89,19.54 5.8,8.32 8.71,19.69 8.71,34.13 0,17.57 -6.2,31.38 -18.59,41.43 -12.4,10.04 -29.89,15.06 -52.49,15.06 -10.67,0 -20.24,-1.1 -28.72,-3.3 -8.47,-2.2 -15.69,-4.78 -21.65,-7.76 -5.96,-2.98 -10.52,-6.28 -13.65,-9.89 -3.14,-3.61 -4.7,-6.83 -4.7,-9.65 0,-2.2 0.7,-4.08 2.12,-5.65 1.41,-1.57 2.9,-2.35 4.47,-2.35 2.2,0 4.55,1.18 7.06,3.53 2.51,2.35 5.96,4.86 10.36,7.53 4.39,2.67 10.12,5.18 17.18,7.53 7.06,2.35 16.08,3.53 27.07,3.53zm1055.37 -309.28c0,-2.51 0.86,-4.47 2.59,-5.89 1.73,-1.41 3.53,-2.12 5.41,-2.12 2.2,0 4.16,0.7 5.89,2.12 1.72,1.41 2.59,3.37 2.59,5.89l0 100.74 63.55 0c2.2,0 4.08,0.79 5.65,2.35 1.57,1.57 2.35,3.61 2.35,6.12 0,2.2 -0.78,4.08 -2.35,5.65 -1.57,1.57 -3.45,2.35 -5.65,2.35l-63.55 0 0 140.28c0,17.89 3.85,30.52 11.54,37.89 7.69,7.37 21.26,11.06 40.72,11.06l10.83 0c2.2,0 4.08,0.7 5.65,2.12 1.57,1.41 2.35,3.37 2.35,5.89 0,2.51 -0.78,4.55 -2.35,6.12 -1.57,1.57 -3.45,2.35 -5.65,2.35l-10.83 0c-22.6,0 -39.7,-5.18 -51.31,-15.54 -11.61,-10.35 -17.42,-26.99 -17.42,-49.9l0 -257.5zm1145.75 325.75c-11.61,0 -22.52,-2.35 -32.72,-7.06 -10.2,-4.71 -19.07,-10.91 -26.6,-18.59 -7.53,-7.69 -13.5,-16.63 -17.89,-26.83 -4.39,-10.2 -6.59,-20.94 -6.59,-32.24l0 -131.81c0,-2.2 0.79,-4.16 2.35,-5.89 1.57,-1.72 3.61,-2.59 6.12,-2.59 2.2,0 4.08,0.87 5.65,2.59 1.57,1.72 2.35,3.69 2.35,5.89l0 131.81c0,8.79 1.73,17.26 5.18,25.42 3.45,8.16 8.24,15.46 14.35,21.89 6.12,6.43 13.26,11.53 21.42,15.3 8.16,3.76 16.94,5.65 26.36,5.65 9.41,0 18.12,-1.88 26.13,-5.65 8,-3.77 15.06,-8.87 21.18,-15.3 6.12,-6.43 10.91,-13.73 14.36,-21.89 3.45,-8.16 5.18,-16.63 5.18,-25.42l0 -132.28c0,-2.2 0.79,-4.08 2.35,-5.65 1.57,-1.57 3.61,-2.35 6.12,-2.35 2.51,0 4.47,0.79 5.88,2.35 1.41,1.57 2.12,3.45 2.12,5.65l0 132.28c0,11.3 -2.2,22.05 -6.59,32.24 -4.39,10.2 -10.43,19.22 -18.12,27.07 -7.69,7.85 -16.56,14.04 -26.6,18.59 -10.04,4.55 -20.71,6.82 -32.01,6.82zm1228.13 -364.35c5.33,0 8,2.67 8,8l0 345.06c0,2.2 -0.7,4.16 -2.12,5.88 -1.41,1.73 -3.37,2.59 -5.89,2.59 -2.51,0 -4.55,-0.86 -6.12,-2.59 -1.57,-1.72 -2.35,-3.69 -2.35,-5.88l0 -24.48c-5.33,9.73 -13.73,18.13 -25.19,25.19 -11.45,7.06 -24.4,10.59 -38.83,10.59 -11.3,0 -21.97,-2.35 -32.01,-7.06 -10.04,-4.71 -18.91,-11.06 -26.6,-19.07 -7.69,-8 -13.81,-17.1 -18.36,-27.3 -4.55,-10.2 -6.83,-20.94 -6.83,-32.24l0 -57.43c0,-11.61 2.28,-22.59 6.83,-32.95 4.55,-10.36 10.67,-19.38 18.36,-27.07 7.69,-7.69 16.63,-13.73 26.83,-18.12 10.2,-4.39 21.11,-6.59 32.72,-6.59 16,0 29.19,3.69 39.54,11.06 10.35,7.37 18.2,15.61 23.54,24.71l0 -164.29c0,-2.51 0.78,-4.47 2.35,-5.89 1.57,-1.41 3.61,-2.12 6.12,-2.12zm-139.81 278.68c0,8.79 1.81,17.34 5.41,25.65 3.61,8.32 8.4,15.69 14.36,22.13 5.96,6.43 12.94,11.61 20.95,15.54 8,3.92 16.56,5.88 25.66,5.88 9.41,0 18.04,-1.96 25.89,-5.88 7.85,-3.93 14.67,-8.63 20.48,-14.12 5.81,-5.49 10.36,-11.14 13.65,-16.95 3.3,-5.8 4.94,-10.75 4.94,-14.83l0 -74.85c0,-10.67 -1.88,-20.24 -5.65,-28.71 -3.76,-8.48 -8.63,-15.61 -14.59,-21.42 -5.96,-5.8 -12.87,-10.28 -20.71,-13.41 -7.85,-3.14 -15.69,-4.71 -23.54,-4.71 -9.1,0 -17.73,1.96 -25.89,5.89 -8.16,3.92 -15.3,9.02 -21.42,15.3 -6.12,6.28 -10.91,13.57 -14.35,21.89 -3.45,8.32 -5.18,16.71 -5.18,25.19l0 57.43zm1155.17 -139.34c2.51,0 4.55,0.71 6.12,2.12 1.57,1.41 2.35,3.37 2.35,5.89l0 205.72c0,2.2 -0.79,4.16 -2.35,5.88 -1.57,1.73 -3.61,2.59 -6.12,2.59 -2.2,0 -4.08,-0.86 -5.65,-2.59 -1.57,-1.72 -2.35,-3.69 -2.35,-5.88l0 -205.72c0,-2.51 0.78,-4.47 2.35,-5.89 1.57,-1.41 3.45,-2.12 5.65,-2.12zm0 -103.09c4.08,0 7.53,1.41 10.36,4.24 2.82,2.82 4.24,6.28 4.24,10.35 0,4.08 -1.41,7.61 -4.24,10.59 -2.83,2.98 -6.28,4.47 -10.36,4.47 -4.39,0 -8,-1.49 -10.83,-4.47 -2.82,-2.98 -4.24,-6.51 -4.24,-10.59 0,-4.08 1.41,-7.53 4.24,-10.35 2.83,-2.82 6.43,-4.24 10.83,-4.24zm1082.2 100.27c11.3,0 21.97,2.2 32.01,6.59 10.04,4.39 18.91,10.43 26.6,18.12 7.69,7.69 13.81,16.71 18.36,27.07 4.55,10.35 6.82,21.34 6.82,32.95l0 57.43c0,11.3 -2.27,22.05 -6.82,32.24 -4.55,10.2 -10.67,19.3 -18.36,27.3 -7.69,8 -16.56,14.36 -26.6,19.07 -10.04,4.71 -20.71,7.06 -32.01,7.06 -11.3,0 -21.97,-2.35 -32.01,-7.06 -10.04,-4.71 -18.83,-10.98 -26.36,-18.83 -7.53,-7.85 -13.57,-16.94 -18.13,-27.3 -4.55,-10.35 -6.83,-21.18 -6.83,-32.48l0 -57.43c0,-11.3 2.2,-22.04 6.59,-32.24 4.39,-10.2 10.36,-19.22 17.89,-27.07 7.53,-7.85 16.4,-14.04 26.6,-18.59 10.2,-4.55 20.95,-6.83 32.24,-6.83zm67.32 84.73c0,-8.47 -1.73,-16.87 -5.18,-25.19 -3.45,-8.31 -8.24,-15.61 -14.36,-21.89 -6.12,-6.28 -13.26,-11.38 -21.42,-15.3 -8.16,-3.93 -16.94,-5.89 -26.36,-5.89 -9.41,0 -18.2,1.96 -26.36,5.89 -8.16,3.92 -15.22,9.02 -21.18,15.3 -5.96,6.28 -10.67,13.57 -14.12,21.89 -3.45,8.32 -5.18,16.71 -5.18,25.19l0 57.43c0,8.79 1.73,17.34 5.18,25.65 3.45,8.32 8.24,15.69 14.35,22.13 6.12,6.43 13.18,11.61 21.19,15.54 8,3.92 16.71,5.88 26.13,5.88 9.42,0 18.2,-1.96 26.36,-5.88 8.16,-3.93 15.3,-9.1 21.42,-15.54 6.12,-6.43 10.91,-13.81 14.36,-22.13 3.45,-8.31 5.18,-16.87 5.18,-25.65l0 -57.43z"/>
  </g>
 </g>
</svg>
